<svg width="24" height="24" viewBox="0 0 24 24" fill="none" xmlns="http://www.w3.org/2000/svg">
<path d="M2.01745 20.3051C3.14609 21.9196 8.05895 23.1871 10.3792 20.1645C12.8889 21.3649 17.0284 20.9928 20.3986 19.1134C20.8674 18.8521 21.3107 18.5222 21.5822 18.0593C22.1952 17.0143 22.2098 15.5644 21.0915 13.4251C19.2269 8.77072 15.8735 4.68513 14.5196 3.04212C14.2416 2.78865 12.4682 2.42868 11.3867 2.08279C10.909 1.93477 10.0195 1.83664 8.95565 3.23862C8.45129 3.90329 6.16011 5.5357 9.06719 6.63346C9.51757 6.74806 9.84864 6.95939 11.9033 6.58404C12.171 6.53761 12.839 6.58404 13.3098 7.41041L14.2931 8.81662C14.3846 8.94752 14.444 9.09813 14.4622 9.25682C14.6345 10.7557 14.6289 12.6323 15.4646 13.5826C14.1739 12.6492 10.8007 11.5406 8.25902 14.6951M2.00142 12.94C3.20962 11.791 6.7115 9.97592 10.4174 12.5216" stroke="#A181FF" stroke-width="1.5" stroke-linecap="round" stroke-linejoin="round"/>
</svg>
